<?xml version="1.0" ?><!DOCTYPE svg  PUBLIC '-//W3C//DTD SVG 1.1//EN'  'http://www.w3.org/Graphics/SVG/1.1/DTD/svg11.dtd'><svg enable-background="new 0 0 800 800" version="1.1" viewBox="0 0 800 800" xml:space="preserve" xmlns="http://www.w3.org/2000/svg" xmlns:xlink="http://www.w3.org/1999/xlink"><g id="Layer_1"><path d="M771.9,400c0,205.3-166.6,371.9-371.9,371.9S28.1,605.3,28.1,400S194.7,28.1,400,28.1   S771.9,194.7,771.9,400z" fill="#4DB6AC"/></g><g id="Layer_2"><g><line fill="none" stroke="#FFFFFF" stroke-linecap="round" stroke-linejoin="round" stroke-miterlimit="10" stroke-width="20" x1="400" x2="400" y1="335" y2="143"/><line fill="none" stroke="#FFFFFF" stroke-linecap="round" stroke-linejoin="round" stroke-miterlimit="10" stroke-width="20" x1="400" x2="463.6" y1="143" y2="209"/><line fill="none" stroke="#FFFFFF" stroke-linecap="round" stroke-linejoin="round" stroke-miterlimit="10" stroke-width="20" x1="400" x2="333.5" y1="143" y2="209.4"/></g><g><line fill="none" stroke="#FFFFFF" stroke-linecap="round" stroke-linejoin="round" stroke-miterlimit="10" stroke-width="20" x1="398.6" x2="398.6" y1="465.1" y2="657.1"/><line fill="none" stroke="#FFFFFF" stroke-linecap="round" stroke-linejoin="round" stroke-miterlimit="10" stroke-width="20" x1="398.6" x2="335" y1="657.1" y2="591.1"/><line fill="none" stroke="#FFFFFF" stroke-linecap="round" stroke-linejoin="round" stroke-miterlimit="10" stroke-width="20" x1="398.6" x2="465" y1="657.1" y2="590.6"/></g><g><line fill="none" stroke="#FFFFFF" stroke-linecap="round" stroke-linejoin="round" stroke-miterlimit="10" stroke-width="20" x1="483.2" x2="675.1" y1="401.4" y2="401.4"/><line fill="none" stroke="#FFFFFF" stroke-linecap="round" stroke-linejoin="round" stroke-miterlimit="10" stroke-width="20" x1="675.1" x2="609.1" y1="401.4" y2="465"/><line fill="none" stroke="#FFFFFF" stroke-linecap="round" stroke-linejoin="round" stroke-miterlimit="10" stroke-width="20" x1="675.1" x2="608.7" y1="401.4" y2="335"/></g><g><line fill="none" stroke="#FFFFFF" stroke-linecap="round" stroke-linejoin="round" stroke-miterlimit="10" stroke-width="20" x1="316.7" x2="124.7" y1="397.1" y2="397.1"/><line fill="none" stroke="#FFFFFF" stroke-linecap="round" stroke-linejoin="round" stroke-miterlimit="10" stroke-width="20" x1="124.7" x2="190.7" y1="397.1" y2="333.5"/><line fill="none" stroke="#FFFFFF" stroke-linecap="round" stroke-linejoin="round" stroke-miterlimit="10" stroke-width="20" x1="124.7" x2="191.1" y1="397.1" y2="463.6"/></g></g></svg>